<svg width="460" height="324" viewBox="0 0 460 324" fill="none" xmlns="http://www.w3.org/2000/svg">
<path d="M203.999 53.2246H251.505V96.4176H203.999V53.2246ZM203.999 105.115H251.505V147.805H203.999V105.115ZM147.869 53.2246H195.375V96.4176H147.869V53.2246ZM260.2 105.043H307.707V147.734H260.2V105.043ZM203.999 0.974609H251.505V44.5996H203.999V0.974609ZM91.738 53.2246H139.243V96.4176H91.738V53.2246ZM147.869 105.043H195.375V147.734H147.869V105.043Z" fill="#099CEC"/>
<path d="M450.441 125.095C440.091 118.123 416.231 115.608 397.904 119.059C395.533 101.81 385.901 86.7888 368.366 73.2768L358.304 66.5918L351.619 76.6538C338.394 96.6338 334.802 129.55 348.961 151.256C342.709 154.633 330.416 159.234 314.175 158.945H1.757C-4.495 195.456 5.926 242.89 33.381 275.446C60.044 306.997 100.004 323.025 152.253 323.025C265.377 323.025 349.104 270.921 388.274 176.265C403.655 176.553 436.858 176.338 453.892 143.782C454.97 141.985 458.635 134.294 459.999 131.491L450.441 125.095Z" fill="#099CEC"/>
<path d="M83.1861 105.043H35.6801V147.734H83.1861V105.043ZM91.7381 105.043H139.243V147.734H91.7381V105.043Z" fill="#099CEC"/>
</svg>
