<svg width="207" height="78" viewBox="0 0 207 78" fill="none" xmlns="http://www.w3.org/2000/svg">
<path d="M16.2 24.0999C15.8 24.0999 15.7 23.8999 15.9 23.5999L18 20.8999C18.2 20.5999 18.7 20.3999 19.1 20.3999H54.8C55.2 20.3999 55.3 20.6999 55.1 20.9999L53.4 23.5999C53.2 23.8999 52.7 24.1999 52.4 24.1999L16.2 24.0999ZM1.10001 33.2999C0.700013 33.2999 0.600012 33.0999 0.800012 32.7999L2.90001 30.0999C3.10001 29.7999 3.60001 29.5999 4.00001 29.5999H49.6C50 29.5999 50.2 29.8999 50.1 30.1999L49.3 32.5999C49.2 32.9999 48.8 33.1999 48.4 33.1999L1.10001 33.2999ZM25.3 42.4999C24.9 42.4999 24.8 42.1999 25 41.8999L26.4 39.3999C26.6 39.0999 27 38.7999 27.4 38.7999H47.4C47.8 38.7999 48 39.0999 48 39.4999L47.8 41.8999C47.8 42.2999 47.4 42.5999 47.1 42.5999L25.3 42.4999Z" fill="#00ACD7"/>
<path d="M129.1 22.3001C122.8 23.9001 118.5 25.1 112.3 26.7C110.8 27.1 110.7 27.2 109.4 25.7C107.9 24 106.8 22.9001 104.7 21.9001C98.4 18.8001 92.3 19.7001 86.6 23.4001C79.8 27.8001 76.3 34.3001 76.4 42.4001C76.5 50.4001 82 57.0001 89.9 58.1001C96.7 59.0001 102.4 56.6 106.9 51.5C107.8 50.4 108.6 49.2001 109.6 47.8001H90.3C88.2 47.8001 87.7 46.5001 88.4 44.8001C89.7 41.7001 92.1 36.5001 93.5 33.9001C93.8 33.3001 94.5 32.3001 96 32.3001H132.4C132.2 35.0001 132.2 37.7001 131.8 40.4001C130.7 47.6001 128 54.2 123.6 60C116.4 69.5 107 75.4001 95.1 77.0001C85.3 78.3001 76.2 76.4 68.2 70.4C60.8 64.8 56.6 57.4 55.5 48.2C54.2 37.3 57.4 27.5001 64 18.9001C71.1 9.60005 80.5 3.70005 92 1.60005C101.4 -0.0999509 110.4 1.00005 118.5 6.50005C123.8 10.0001 127.6 14.8 130.1 20.6C130.7 21.5 130.3 22.0001 129.1 22.3001Z" fill="#00ACD7"/>
<path d="M162.2 77.5999C153.1 77.3999 144.8 74.7999 137.8 68.7999C131.9 63.6999 128.2 57.1998 127 49.4998C125.2 38.1998 128.3 28.1999 135.1 19.2999C142.4 9.69985 151.2 4.69985 163.1 2.59985C173.3 0.799847 182.9 1.79985 191.6 7.69985C199.5 13.0998 204.4 20.3998 205.7 29.9998C207.4 43.4998 203.5 54.4998 194.2 63.8998C187.6 70.5998 179.5 74.7998 170.2 76.6998C167.5 77.1998 164.8 77.2999 162.2 77.5999ZM186 37.1998C185.9 35.8998 185.9 34.8998 185.7 33.8998C183.9 23.9998 174.8 18.3998 165.3 20.5998C156 22.6998 150 28.5998 147.8 37.9998C146 45.7998 149.8 53.6998 157 56.8998C162.5 59.2998 168 58.9999 173.3 56.2999C181.2 52.1999 185.5 45.7998 186 37.1998Z" fill="#00ACD7"/>
</svg>
