<svg width="346" height="80" viewBox="0 0 346 80" fill="none" xmlns="http://www.w3.org/2000/svg">
<path d="M79.5 48.3001L71.9 15.1001C71.5 13.3001 69.8 11.5001 68 11.0001L33.1 0.300102C32.6 0.200102 32.1 0.100098 31.6 0.100098C30.1 0.100098 28.5 0.700098 27.6 1.6001L2.60002 24.8001C1.30002 26.0001 0.500011 28.4001 0.900011 30.2001L9.00002 65.7001C9.40002 67.5001 11.1 69.3001 12.9 69.8001L45.5 79.8001C46 79.9001 46.5 80.0001 47 80.0001C48.5 80.0001 50.1 79.4001 51 78.5001L77.7 53.7001C79.2 52.5001 79.9 50.1001 79.5 48.3001ZM36.7 8.1001L60.6 15.4001C61.5 15.7001 61.5 16.1001 60.6 16.3001L48 19.2001C47 19.4001 45.7 19.0001 45.1 18.3001L36.3 8.8001C35.6 8.2001 35.8 7.9001 36.7 8.1001ZM51.6 51.0001C51.8 52.0001 51.2 52.5001 50.3 52.2001L24.5 44.3001C23.6 44.0001 23.4 43.2001 24.1 42.6001L43.9 24.2001C44.6 23.5001 45.4 23.8001 45.6 24.7001L51.6 51.0001ZM9.10002 27.6001L30.1 8.1001C30.8 7.4001 31.9 7.5001 32.6 8.2001L43.1 19.5001C43.8 20.2001 43.7 21.3001 43 22.0001L22 41.5001C21.3 42.2001 20.2 42.1001 19.5 41.4001L9.00002 30.1001C8.40002 29.4001 8.40002 28.3001 9.10002 27.6001ZM14.2 58.6001L8.60002 34.3001C8.40002 33.3001 8.70001 33.2001 9.40001 33.9001L18.2 43.4001C18.9 44.1001 19.2 45.5001 18.9 46.4001L15.1 58.7001C14.9 59.5001 14.4 59.5001 14.2 58.6001ZM44.9 72.7001L17.6 64.3001C16.7 64.0001 16.1 63.0001 16.4 62.1001L20.9 47.3001C21.2 46.4001 22.2 45.8001 23.1 46.1001L50.4 54.5001C51.3 54.8001 51.9 55.8001 51.6 56.7001L47.1 71.5001C46.8 72.5001 45.8 73.0001 44.9 72.7001ZM69.2 52.8001L50.9 69.8001C50.2 70.5001 49.8 70.2001 50.1 69.3001L53.9 57.0001C54.2 56.1001 55.2 55.1001 56.2 54.9001L68.8 52.0001C69.7 51.8001 69.9 52.2001 69.2 52.8001ZM71.2 49.2001L56.1 52.6001C55.1 52.8001 54.2 52.2001 54 51.3001L47.6 23.4001C47.4 22.4001 48 21.5001 48.9 21.3001L64 17.9001C65 17.7001 65.9 18.3001 66.1 19.2001L72.5 47.1001C72.7 48.0001 72.1 49.0001 71.2 49.2001Z" fill="url(#paint0_linear_4005_545)"/>
<path d="M110.5 26.4001L119.4 25.2001L113.1 61.0001H104.4L110.5 26.4001ZM113.1 11.3001L122 10.1001L120.3 19.9001L111.4 21.2001L113.1 11.3001Z" fill="url(#paint1_linear_4005_545)"/>
<path d="M147.2 35.9001C147.3 35.5001 147.3 35.1001 147.3 35.0001C147.3 34.1001 146.9 33.5001 145.5 33.5001C143.2 33.5001 138.3 35.7001 135 37.6001L130.9 61.0001H122.2L128.3 26.5001L135.8 25.2001L135.7 29.5001C140.3 27.0001 145.8 25.1001 150 25.1001C154.8 25.1001 156.4 28.3001 156.4 32.1001C156.4 33.5001 156.3 34.4001 156 35.6001L151.5 61.1001H142.8L147.2 35.9001Z" fill="url(#paint2_linear_4005_545)"/>
<path d="M184.4 32.7998H176.3L171 62.5998C170 68.2998 167.9 71.8998 163.3 75.8998L157.7 70.6998C160.5 67.9998 161.8 65.5998 162.4 61.7998L167.5 32.7998H162.1L163.3 25.6998H168.7L169.6 20.5998C170.9 13.0998 173.9 9.7998 182.8 9.7998C185.7 9.7998 189.5 10.1998 193.9 11.1998L202.8 9.9998L193.8 60.8998H185.1L192.7 17.7998C189.2 17.0998 185.7 16.6998 182.9 16.6998C179.9 16.6998 178.7 17.6998 178.3 20.1998L177.4 25.5998H186.2L184.4 32.7998Z" fill="url(#paint3_linear_4005_545)"/>
<path d="M213.1 50.8001C213 51.3001 213 51.6001 213 51.7001C213 52.6001 213.4 53.2001 214.8 53.2001C217.1 53.2001 222 51.0001 225.3 49.1001L229.3 26.3001L238.2 25.1001L232 61.0001H224.6L224.7 57.3001C220.1 59.8001 214.6 61.7001 210.4 61.7001C205.6 61.7001 204 58.5001 204 54.7001C204 53.3001 204.1 52.4001 204.4 51.2001L208.7 26.4001L217.6 25.2001L213.1 50.8001Z" fill="url(#paint4_linear_4005_545)"/>
<path d="M251.9 43.2001L244.3 26.6001L252.4 25.1001L257.7 37.6001L266.4 25.7001H275.7L261.3 44.3001L269 61.0001H260.2L255.4 50.8001L246.9 61.0001H237.6L251.9 43.2001Z" fill="url(#paint5_linear_4005_545)"/>
<path d="M302.3 61.0002H294.9V57.1002C291.9 59.8002 288.1 61.7002 282.9 61.7002C276.8 61.7002 274.7 58.4002 274.7 53.7002C274.7 52.5002 274.8 51.3002 275.1 50.0002L276.9 39.7002C278.5 30.7002 280.2 25.0002 294 25.0002C295.3 25.0002 297.8 25.2002 299.8 25.7002L302.3 11.4002L311.2 10.2002L302.3 61.0002ZM298.6 32.8002C297 32.4002 294.7 32.4002 293.5 32.4002C287.9 32.4002 286.5 34.6002 285.7 39.3002L283.5 51.7002C283.4 52.1002 283.4 52.4002 283.4 52.6002C283.4 53.9002 284.3 54.5002 285.9 54.5002C289.6 54.5002 293.9 51.5002 295.7 49.2002L298.6 32.8002Z" fill="url(#paint6_linear_4005_545)"/>
<path d="M320.1 11.3001L329 10.1001L325.8 28.1001C329.7 25.9001 333.4 25.0001 336.9 25.0001C343 25.0001 345.1 28.3001 345.1 33.0001C345.1 34.2001 345 35.4001 344.7 36.7001L343 47.0001C341.1 57.6001 337.5 61.7001 324.8 61.7001C321.5 61.7001 315.1 60.6001 311.6 59.4001L320.1 11.3001ZM321.2 53.9001C322.8 54.2001 324.5 54.4001 326.3 54.4001C331.9 54.4001 333.3 52.1001 334.1 47.5001L336.3 35.1001C336.4 34.7001 336.4 34.4001 336.4 34.2001C336.4 32.9001 335.5 32.3001 333.9 32.3001C331.2 32.3001 327.5 33.5001 324.4 35.6001L321.2 53.9001Z" fill="url(#paint7_linear_4005_545)"/>
<defs>
<linearGradient id="paint0_linear_4005_545" x1="42.324" y1="40.0001" x2="320.088" y2="40.0001" gradientUnits="userSpaceOnUse">
<stop stop-color="#4591ED"/>
<stop offset="1" stop-color="#00C9FF"/>
</linearGradient>
<linearGradient id="paint1_linear_4005_545" x1="42.324" y1="35.5381" x2="320.088" y2="35.5381" gradientUnits="userSpaceOnUse">
<stop stop-color="#4591ED"/>
<stop offset="1" stop-color="#00C9FF"/>
</linearGradient>
<linearGradient id="paint2_linear_4005_545" x1="42.3241" y1="42.9911" x2="320.088" y2="42.9911" gradientUnits="userSpaceOnUse">
<stop stop-color="#4591ED"/>
<stop offset="1" stop-color="#00C9FF"/>
</linearGradient>
<linearGradient id="paint3_linear_4005_545" x1="42.3241" y1="42.9178" x2="320.088" y2="42.9178" gradientUnits="userSpaceOnUse">
<stop stop-color="#4591ED"/>
<stop offset="1" stop-color="#00C9FF"/>
</linearGradient>
<linearGradient id="paint4_linear_4005_545" x1="42.3239" y1="43.4251" x2="320.088" y2="43.4251" gradientUnits="userSpaceOnUse">
<stop stop-color="#4591ED"/>
<stop offset="1" stop-color="#00C9FF"/>
</linearGradient>
<linearGradient id="paint5_linear_4005_545" x1="42.3239" y1="43.0631" x2="320.088" y2="43.0631" gradientUnits="userSpaceOnUse">
<stop stop-color="#4591ED"/>
<stop offset="1" stop-color="#00C9FF"/>
</linearGradient>
<linearGradient id="paint6_linear_4005_545" x1="42.324" y1="35.9002" x2="320.088" y2="35.9002" gradientUnits="userSpaceOnUse">
<stop stop-color="#4591ED"/>
<stop offset="1" stop-color="#00C9FF"/>
</linearGradient>
<linearGradient id="paint7_linear_4005_545" x1="42.324" y1="35.9001" x2="320.088" y2="35.9001" gradientUnits="userSpaceOnUse">
<stop stop-color="#4591ED"/>
<stop offset="1" stop-color="#00C9FF"/>
</linearGradient>
</defs>
</svg>
