<svg width="512" height="309" viewBox="0 0 512 309" fill="none" xmlns="http://www.w3.org/2000/svg">
<path d="M129.662 217.602H217.884V224.277H121.31V81.0613H216.878V87.7367H129.662H129.162V88.2367V146.004V146.504H129.662H211.648V153.179H129.662H129.162V153.679V217.102V217.602H129.662ZM282.16 144.279L328.624 80.87L328.634 80.8568L381.843 13.0433L287.18 150.366L286.979 150.656L287.186 150.942L340.128 224.277H330.699L282.162 157.022L281.758 156.462L281.352 157.021L232.614 224.277H223.39L276.729 150.943L276.942 150.651L276.731 150.358L227.003 81.0613H236.033L281.351 144.275L281.753 144.836L282.16 144.279ZM395.425 87.7367H345.428V81.0613H454.476V87.7367H404.277H403.777V88.2367V224.277H395.925V88.2367V87.7367H395.425ZM8.75443 91.4669L8.35356 224.277H0.5V81.0613H10.7978L152.98 293.824L101.004 224.494L100.998 224.486L9.66689 91.1858L8.75927 89.8611L8.75443 91.4669ZM497.305 199.899L497.301 199.898C494.542 199.252 492.602 198.277 491.352 196.96C490.114 195.656 489.506 193.967 489.506 191.783C489.506 189.161 490.57 186.997 492.43 185.479C494.299 183.954 497.005 183.056 500.309 183.056C506.212 183.056 510.429 186.356 510.961 190.981H507.224C506.551 188.053 503.855 186.324 500.245 186.324C498.265 186.324 496.565 186.799 495.346 187.687C494.113 188.583 493.393 189.888 493.393 191.459C493.393 192.722 493.872 193.741 494.91 194.551C495.912 195.334 497.42 195.908 499.461 196.387C499.462 196.387 499.462 196.387 499.463 196.387L502.881 197.227L502.887 197.228C506.038 197.964 508.183 198.955 509.541 200.279C510.878 201.583 511.5 203.259 511.5 205.494C511.5 208.328 510.409 210.601 508.461 212.176C506.502 213.761 503.632 214.674 500.029 214.674C496.667 214.674 493.902 213.805 491.948 212.303C490.134 210.909 488.992 208.95 488.712 206.554H492.527C493.196 209.605 496.313 211.383 500.395 211.383C502.414 211.383 504.2 210.862 505.496 209.944C506.799 209.022 507.613 207.689 507.613 206.119C507.613 204.779 507.089 203.688 506.007 202.821C504.953 201.978 503.386 201.359 501.307 200.868L497.305 199.899ZM454.084 214.285C452.561 214.285 451.419 213.118 451.419 211.573C451.419 210.029 452.561 208.861 454.084 208.861C455.626 208.861 456.749 210.027 456.749 211.573C456.749 213.12 455.626 214.285 454.084 214.285ZM477.535 205.3V183.81H481.358V205.321C481.358 208.352 480.483 210.676 478.944 212.241C477.407 213.806 475.147 214.674 472.255 214.674C469.549 214.674 467.309 213.834 465.751 212.392C464.3 211.049 463.406 209.154 463.294 206.835H467.052C467.185 208.032 467.698 209.059 468.518 209.81C469.445 210.659 470.729 211.125 472.212 211.125C473.854 211.125 475.208 210.627 476.147 209.601C477.079 208.582 477.535 207.113 477.535 205.3Z" fill="black" stroke="white"/>
</svg>
