<svg width="697" height="200" viewBox="0 0 697 200" fill="none" xmlns="http://www.w3.org/2000/svg">
<path d="M184 104L104 184" stroke="#44A8B3" stroke-width="32" stroke-linecap="round" stroke-linejoin="round"/>
<path d="M168 16L16 168" stroke="#44A8B3" stroke-width="32" stroke-linecap="round" stroke-linejoin="round"/>
<path d="M268.992 153.28C255.253 153.28 245.141 149.312 238.656 141.376C237.291 139.584 236.608 137.963 236.608 136.512C236.608 134.464 237.675 132.672 239.808 131.136C241.259 130.197 242.667 129.728 244.032 129.728C245.909 129.728 247.659 130.539 249.28 132.16C252.181 135.061 254.997 137.152 257.728 138.432C260.544 139.627 264 140.224 268.096 140.224C271.595 140.224 274.539 139.755 276.928 138.816C279.317 137.877 280.512 136.725 280.512 135.36C280.512 133.653 279.531 132.203 277.568 131.008C275.605 129.813 271.637 128.277 265.664 126.4C256.277 123.499 249.621 120.469 245.696 117.312C241.771 114.069 239.808 110.059 239.808 105.28C239.808 99.904 242.112 95.68 246.72 92.608C251.328 89.536 257.685 88 265.792 88C272.021 88 277.653 88.9387 282.688 90.816C287.723 92.6933 291.392 95.2107 293.696 98.368C294.805 99.8187 295.36 101.269 295.36 102.72C295.36 104.768 294.336 106.432 292.288 107.712C290.837 108.651 289.344 109.12 287.808 109.12C285.333 109.12 283.072 108.096 281.024 106.048C279.317 104.427 277.099 103.189 274.368 102.336C271.723 101.483 268.821 101.056 265.664 101.056C259.691 101.056 256.704 102.464 256.704 105.28C256.704 106.389 257.173 107.371 258.112 108.224C259.051 109.077 260.715 109.973 263.104 110.912C265.579 111.851 269.419 113.131 274.624 114.752C282.987 117.312 288.832 120.128 292.16 123.2C295.573 126.272 297.28 130.325 297.28 135.36C297.28 140.736 294.805 145.088 289.856 148.416C284.907 151.659 277.952 153.28 268.992 153.28ZM316.083 153.28C313.438 153.28 311.39 152.597 309.939 151.232C308.488 149.867 307.763 147.989 307.763 145.6V62.528C307.763 60.1387 308.488 58.2613 309.939 56.896C311.39 55.5307 313.438 54.848 316.083 54.848C318.643 54.848 320.691 55.5307 322.227 56.896C323.763 58.2613 324.531 60.1387 324.531 62.528V99.392C327.688 95.4667 331.23 92.608 335.155 90.816C339.08 88.9387 343.646 88 348.851 88C357.043 88 363.486 90.6027 368.179 95.808C372.958 100.928 375.347 107.925 375.347 116.8V145.6C375.347 147.989 374.579 149.867 373.043 151.232C371.507 152.597 369.459 153.28 366.899 153.28C364.254 153.28 362.206 152.597 360.755 151.232C359.304 149.867 358.579 147.989 358.579 145.6V116.8C358.579 111.936 357.384 108.139 354.995 105.408C352.606 102.677 349.278 101.312 345.011 101.312C338.526 101.312 333.491 103.232 329.907 107.072C326.323 110.827 324.531 116.117 324.531 122.944V145.6C324.531 147.989 323.763 149.867 322.227 151.232C320.691 152.597 318.643 153.28 316.083 153.28ZM412.113 153.28C406.822 153.28 402.129 152.384 398.033 150.592C394.022 148.8 390.865 146.325 388.561 143.168C386.342 139.925 385.233 136.213 385.233 132.032C385.233 125.717 387.836 120.683 393.041 116.928C398.332 113.173 405.457 111.296 414.417 111.296C422.182 111.296 428.412 112.96 433.105 116.288V113.216C433.105 109.205 431.868 106.133 429.393 104C426.918 101.867 423.334 100.8 418.641 100.8C411.644 100.8 405.628 102.293 400.593 105.28C398.46 106.475 396.625 107.072 395.089 107.072C393.212 107.072 391.548 106.219 390.097 104.512C389.158 103.317 388.689 102.08 388.689 100.8C388.689 98.6667 389.798 96.7893 392.017 95.168C395.089 92.9493 398.972 91.2 403.665 89.92C408.358 88.64 413.308 88 418.513 88C428.412 88 436.177 90.2613 441.809 94.784C447.526 99.2213 450.385 105.365 450.385 113.216V146.112C450.385 148.331 449.617 150.08 448.081 151.36C446.63 152.64 444.625 153.28 442.065 153.28C439.42 153.28 437.372 152.683 435.921 151.488C434.47 150.293 433.745 148.587 433.745 146.368V144.96C428.881 150.507 421.67 153.28 412.113 153.28ZM416.081 141.504C421.457 141.504 425.638 140.693 428.625 139.072C431.697 137.365 433.233 135.019 433.233 132.032C433.233 129.216 431.697 126.955 428.625 125.248C425.553 123.541 421.457 122.688 416.337 122.688C411.729 122.688 408.145 123.499 405.585 125.12C403.11 126.741 401.873 129.045 401.873 132.032C401.873 135.019 403.11 137.365 405.585 139.072C408.06 140.693 411.558 141.504 416.081 141.504ZM494.409 153.28C487.753 153.28 481.822 152 476.617 149.44C471.497 146.795 467.486 142.997 464.585 138.048C461.684 133.099 460.233 127.296 460.233 120.64C460.233 113.984 461.598 108.224 464.329 103.36C467.145 98.4107 471.156 94.6133 476.361 91.968C481.566 89.3227 487.71 88 494.793 88C499.998 88 504.393 88.8533 507.977 90.56C511.561 92.1813 514.932 94.656 518.089 97.984L518.217 62.528C518.217 60.1387 518.985 58.2613 520.521 56.896C522.057 55.5307 524.105 54.848 526.665 54.848C529.225 54.848 531.23 55.5307 532.681 56.896C534.217 58.176 534.985 60.0533 534.985 62.528V145.6C534.985 148.075 534.217 149.995 532.681 151.36C531.23 152.64 529.225 153.28 526.665 153.28C524.105 153.28 522.057 152.597 520.521 151.232C518.985 149.867 518.217 147.989 518.217 145.6V143.04C512.5 149.867 504.564 153.28 494.409 153.28ZM496.969 139.968C503.625 139.968 508.83 138.261 512.585 134.848C516.34 131.435 518.217 126.699 518.217 120.64C518.217 114.581 516.34 109.845 512.585 106.432C508.83 103.019 503.625 101.312 496.969 101.312C490.74 101.312 485.876 103.019 482.377 106.432C478.878 109.845 477.129 114.581 477.129 120.64C477.129 126.699 478.878 131.435 482.377 134.848C485.876 138.261 490.74 139.968 496.969 139.968ZM581.579 153.28C570.144 153.28 561.27 150.421 554.955 144.704C548.64 138.901 545.483 130.837 545.483 120.512C545.483 110.187 548.64 102.208 554.955 96.576C561.27 90.8587 570.144 88 581.579 88C587.638 88 593.099 89.024 597.963 91.072C602.912 93.0347 606.795 95.8507 609.611 99.52C610.635 100.8 611.147 102.165 611.147 103.616C611.147 105.835 609.995 107.797 607.691 109.504C606.667 110.272 605.387 110.656 603.851 110.656C602.656 110.656 601.419 110.4 600.139 109.888C598.859 109.291 597.75 108.48 596.811 107.456C595.104 105.493 592.886 104 590.155 102.976C587.51 101.867 584.651 101.312 581.579 101.312C575.52 101.312 570.784 103.019 567.371 106.432C564.043 109.76 562.379 114.453 562.379 120.512C562.379 126.741 564.043 131.563 567.371 134.976C570.784 138.304 575.52 139.968 581.579 139.968C588.32 139.968 594.08 137.707 598.859 133.184C601.248 130.795 603.595 129.6 605.899 129.6C607.435 129.6 608.843 130.112 610.123 131.136C612.171 132.757 613.195 134.72 613.195 137.024C613.195 138.475 612.598 139.883 611.403 141.248C607.478 145.429 603.083 148.501 598.219 150.464C593.44 152.341 587.894 153.28 581.579 153.28ZM631.958 153.28C629.313 153.28 627.265 152.597 625.814 151.232C624.363 149.867 623.638 147.989 623.638 145.6V95.68C623.638 93.2053 624.321 91.328 625.686 90.048C627.137 88.6827 629.142 88 631.702 88C634.262 88 636.267 88.6827 637.718 90.048C639.169 91.4133 639.894 93.2907 639.894 95.68V99.392C645.953 91.7973 654.23 88 664.726 88C672.918 88 679.361 90.6027 684.054 95.808C688.833 100.928 691.222 107.925 691.222 116.8V145.6C691.222 147.989 690.454 149.867 688.918 151.232C687.382 152.597 685.334 153.28 682.774 153.28C680.129 153.28 678.081 152.597 676.63 151.232C675.179 149.867 674.454 147.989 674.454 145.6V116.8C674.454 111.936 673.259 108.139 670.87 105.408C668.481 102.677 665.153 101.312 660.886 101.312C654.401 101.312 649.366 103.232 645.782 107.072C642.198 110.827 640.406 116.117 640.406 122.944V145.6C640.406 147.989 639.638 149.867 638.102 151.232C636.566 152.597 634.518 153.28 631.958 153.28Z" fill="#44A8B3"/>
</svg>
