<svg width="1501" height="1404" viewBox="0 0 1501 1404" fill="none" xmlns="http://www.w3.org/2000/svg">
<path d="M501 257C501 257 445.4 289.1 445.4 353.2C445.4 417.4 445.4 673.6 445.4 673.6C445.4 673.6 445.4 737.8 389.8 705.7C334.2 673.6 334.2 609.5 334.2 609.5C334.2 609.5 334.2 353.2 334.2 289.1C334.2 285.1 334.4 281.2 334.8 277.4C340.9 221 389.7 192.8 389.7 192.8L278.6 128.7C278.6 128.7 278.5 128.7 278.4 128.8C275.1 130.7 223 162.8 223 224.9C223 289.1 223 545.3 223 545.3C223 545.3 223 609.5 167.4 577.4C111.8 545.3 111.8 481.2 111.8 481.2C111.8 481.2 111.8 224.9 111.8 160.8C111.8 96.7004 167.4 64.6004 167.4 64.6004L56.3003 0.400391C56.3003 0.400391 0.700195 32.5004 0.700195 96.6004C0.700195 160.8 0.700195 417 0.700195 417C0.700195 417 0.700272 609.5 167.4 705.7C218.5 735.2 253.9 737.5 278.5 726.6C303.1 765.9 338.5 804.5 389.6 834C556.3 930.2 556.3 737.8 556.3 737.8C556.3 737.8 556.3 481.5 556.3 417.4C556.3 353.2 611.9 321.2 611.9 321.2L501 257Z" fill="#808285"/>
<path d="M1278.8 257.001C1227.6 227.401 1181.7 213.001 1142.6 207.201C1132.4 184.901 1107.4 158.701 1056.6 129.701C889.9 34.5008 723.3 128.701 723.3 128.701L501 257.001L612.1 321.101L834.3 192.801C834.3 192.801 889.9 160.701 945.4 192.801C1001 224.901 945.4 257.001 945.4 257.001L723.2 385.301L834.3 449.401L1056.7 321.001C1060 319.101 1113.8 290.001 1167.6 321.101C1223.2 353.201 1167.6 385.201 1167.6 385.201L945.4 513.501L1056.5 577.701L1334.3 417.301C1334.3 417.301 1445.4 353.201 1278.8 257.001Z" fill="#F16822"/>
<path d="M667.7 546.4L778.8 610.5V738.8L667.7 674.7V546.4Z" fill="#BCBEC0"/>
<path d="M945.4 513.601C945.4 513.601 889.8 545.701 889.8 609.801C889.8 674.001 889.8 930.201 889.8 930.201C889.8 930.201 889.8 994.401 834.2 962.301C778.6 930.201 778.6 866.101 778.6 866.101L667.5 801.901C667.5 801.901 667.5 994.401 834.2 1090.6C1000.9 1186.8 1000.9 994.401 1000.9 994.401C1000.9 994.401 1000.9 738.101 1000.9 674.001C1000.9 609.901 1056.5 577.801 1056.5 577.801L945.4 513.601Z" fill="#BCBEC0"/>
<path d="M1278.8 834.301L1501 962.601V834.301L1278.8 706.001C1278.8 706.001 1112.1 612.2 1112.1 802.2C1112.1 992.2 1278.8 1090.9 1278.8 1090.9L1334.4 1123C1334.4 1123 1390 1155.1 1390 1219.2C1390 1283.4 1334.4 1251.3 1334.4 1251.3L1112.1 1123V1251.3L1334.3 1379.6C1334.3 1379.6 1501 1475.8 1501 1283.4C1501 1091 1389.9 1026.8 1389.9 1026.8L1278.8 962.701C1278.8 962.701 1223.2 930.601 1223.2 866.501C1223.2 802.201 1278.8 834.301 1278.8 834.301Z" fill="#BCBEC0"/>
</svg>
